# xmcd
#
# Track frame offsets:
#	150
#	25116
#	52544
#	81567
#	114620
#	140745
#	165913
#	192632
#	215784
#	237727
#	262054
#
# Disc length: 3814 seconds
#
# Revision: 1
# Processed by: cddbd v1.5.2PL0 Copyright (c) Steve Scherf et al.
# Submitted via: audiograbber 1.83.01
#
DISCID=a40ee40b
DTITLE=Karunesh - Enlightenment A Sacred Collection by Karunesh
DYEAR=1900
DGENRE=
TTITLE0=Calling Wisdom from Zen Breakfast
TTITLE1=Flowing Bamboo from Joy of Life
TTITLE2=For the Joy of it All from Call of the Music
TTITLE3=Longing for the Unknown from Joy of Life
TTITLE4=Moon Temple from Zen Breakfast
TTITLE5=Keeper of Mystery from Nirvana Cafe
TTITLE6=Sunrise at the Ganges from Call of the Mystic
TTITLE7=Morning Celebration from Joy of Life
TTITLE8=Returning to Now from Zen Breakfast
TTITLE9=Òhe Peace Within from Nirvana Cafe
TTITLE10=Ancient Voices from Call of the Mystic
EXTD=
EXTT0=
EXTT1=
EXTT2=
EXTT3=
EXTT4=
EXTT5=
EXTT6=
EXTT7=
EXTT8=
EXTT9=
EXTT10=
PLAYORDER=
